<?xml version="1.0" encoding="UTF-8" standalone="no"?>
<!-- Created with Inkscape (http://www.inkscape.org/) -->
<svg xmlns:svg="http://www.w3.org/2000/svg" xmlns="http://www.w3.org/2000/svg" version="1.0" width="454.99899" height="455" viewBox="-9.302 -9.782 454.999 455" id="Layer_1" xml:space="preserve"><defs id="defs1373"/>
<path d="M 19.581,217.723 C 19.578,327.416 108.502,416.339 218.195,416.338 C 327.885,416.338 416.813,327.417 416.813,217.723 C 416.811,108.03 327.885,19.098 218.194,19.098 C 108.501,19.099 19.58,108.03 19.581,217.723 z " style="fill:#ffffff;stroke:#000000;stroke-width:6.91480017" id="path1352"/>
<path d="M 319.453,319.549 C 332.19,306.811 352.375,306.066 365.991,317.301 C 412.716,247.843 405.383,152.831 343.964,91.413 C 317.9,65.349 285.785,49.028 252.141,42.439 C 250.456,60.009 235.656,73.755 217.645,73.755 C 199.632,73.755 184.833,60.011 183.148,42.44 C 149.502,49.03 117.384,65.353 91.318,91.42 C 29.898,152.839 22.561,247.848 69.286,317.304 C 82.902,306.066 103.091,306.811 115.829,319.55 C 128.567,332.288 129.312,352.477 118.073,366.093 C 178.093,406.466 257.185,406.466 317.204,366.091 C 305.968,352.474 306.715,332.286 319.453,319.549 z " style="fill:none;stroke:#000000;stroke-width:6.91480017" id="path1354"/>
<circle cx="126.093" cy="141.746" r="19.554001" style="fill:none;stroke:#000000;stroke-width:6.91480017" id="circle1356"/>
<circle cx="102.949" cy="233.33099" r="19.554001" style="fill:none;stroke:#000000;stroke-width:6.91480017" id="circle1358"/>
<circle cx="203.94901" cy="233.33099" r="19.554001" style="fill:none;stroke:#000000;stroke-width:6.91480017" id="circle1360"/>
<circle cx="332.32999" cy="233.33099" r="19.554001" style="fill:none;stroke:#000000;stroke-width:6.91480017" id="circle1362"/>
<circle cx="170.961" cy="324.452" r="19.554001" style="fill:none;stroke:#000000;stroke-width:6.91480017" id="circle1364"/>
<circle cx="309.18301" cy="141.745" r="19.554001" style="fill:none;stroke:#000000;stroke-width:6.91480017" id="circle1366"/>
<circle cx="264.315" cy="324.45099" r="19.554001" style="fill:none;stroke:#000000;stroke-width:6.91480017" id="circle1368"/>
<circle cx="217.698" cy="141.746" r="19.554001" style="fill:none;stroke:#000000;stroke-width:6.91480017" id="circle1370"/>
</svg>